<?xml version="1.0" encoding="UTF-8" standalone="no"?>
<svg version="1.1" width="888" height="353" xmlns="http://www.w3.org/2000/svg" fill="#f04f23">

<path d="M 196,0 L 142.181,118 H 0 L 104.2,201.276 L 35,353 L 165.605,250.351   L 249,317 L 229.465,200.159 L 334,118 H 215.729 L 196,0 z"/>

<rect x="369" y="135" width="44" height="112"/>
<path d="m 582,175 c 0,-27 -23.5,-44 -69,-44 c -49,0 -69,20 -69,60   c 0,40 20,60 69,60 c 45.5,0 69,-17 69,-44   h -41 c -6,23 -56,28 -56,-16 c 0,-44 50,-39 56,-16 h 41 z"/>
<path d="m 606,135 v 27 h 32 a 6,6,0,0,1,6,6 v 79 h 44   v -79 a 6,6,0,0,1,6,-6 h 32 v -27 h -120 z"/>
<path d="m 748,135 l 36,112 h 68 l 36,-112 h -44 l -21,74   c -2.1,7.4 -7.9,7.4 -10,0 l -21,-74 h -68 z"/>

</svg>